# xmcd
# 
# Track frame offsets:
#     150
#     27823
#     48115
#     53591
#     94013
#     120818
#     141685
#     172410
#     205482
# 
# Disc length: 3139
# 
# Revision: 2
# Processed by: cddbd v1.5.2PL0 Copyright (c) Steve Scherf et al.
# Submitted via: fre:ac v1.0.27
# 
DISCID=7a0c4109
DTITLE=Jim Jim - Weiﬂe Schatten
DYEAR=2018
DGENRE=Jazz
TTITLE0=7x7x7
TTITLE1=House Of The King
TTITLE2=Intro Duende
TTITLE3=Duende
TTITLE4=Exploration
TTITLE5=Days Of September
TTITLE6=Dreaming
TTITLE7=Mankafiza
TTITLE8=Surface
EXTD=YEAR: 2018
EXTT0=
EXTT1=
EXTT2=
EXTT3=
EXTT4=
EXTT5=
EXTT6=
EXTT7=
EXTT8=
PLAYORDER=
